<svg width="535" height="549" viewBox="0 0 535 549" fill="none" xmlns="http://www.w3.org/2000/svg">
<path d="M65.7238 124.965L-33.3861 109.957L1.32862 205.336L101.079 220.643L65.7238 124.965Z" fill="black" fill-opacity="0.4"/>
<path d="M135.759 48.3941L69.0127 123.768L103.898 219.617L170.473 143.773L135.759 48.3941Z" fill="black" fill-opacity="0.4"/>
<path d="M65.9362 121.163L-34.7542 106.198L33.1026 30.9525L134.391 44.6354L65.9362 121.163Z" fill="black" fill-opacity="0.4"/>
<path d="M65.7238 124.965L-33.3861 109.957L1.32862 205.336L101.079 220.643L65.7238 124.965Z" stroke="black" stroke-opacity="0.6"/>
<path d="M135.759 48.3941L69.0127 123.768L103.898 219.617L170.473 143.773L135.759 48.3941Z" stroke="black" stroke-opacity="0.6"/>
<path d="M65.9362 121.163L-34.7542 106.198L33.1026 30.9525L134.391 44.6354L65.9362 121.163Z" stroke="black" stroke-opacity="0.6"/>
<path d="M361.289 322.331L280.262 307.537L306.399 386.737L387.944 401.793L361.289 322.331Z" fill="#FFF6F6"/>
<path d="M420.716 261.185L364.02 321.429L390.285 401.02L446.853 340.386L420.716 261.185Z" fill="#FFF6F6"/>
<path d="M361.558 319.213L279.232 304.416L336.837 244.304L419.686 258.064L361.558 319.213Z" fill="#FFF6F6"/>
<path d="M361.289 322.331L280.262 307.537L306.399 386.737L387.944 401.793L361.289 322.331Z" stroke="black" stroke-opacity="0.6"/>
<path d="M420.716 261.185L364.02 321.429L390.285 401.02L446.853 340.386L420.716 261.185Z" stroke="black" stroke-opacity="0.6"/>
<path d="M361.558 319.213L279.232 304.416L336.837 244.304L419.686 258.064L361.558 319.213Z" stroke="black" stroke-opacity="0.6"/>
<path d="M460.726 470.326L415.198 425.55L397.471 487.732L443.218 532.902L460.726 470.326Z" fill="#FFF6F6"/>
<path d="M525.472 456.988L462.87 470.938L445.056 533.426L507.744 519.17L525.472 456.988Z" fill="#FFF6F6"/>
<path d="M462.257 468.444L415.897 423.1L479.023 409.632L526.17 454.538L462.257 468.444Z" fill="#FFF6F6"/>
<path d="M460.726 470.326L415.198 425.55L397.471 487.732L443.218 532.902L460.726 470.326Z" stroke="black" stroke-opacity="0.6"/>
<path d="M525.472 456.988L462.87 470.938L445.056 533.426L507.744 519.17L525.472 456.988Z" stroke="black" stroke-opacity="0.6"/>
<path d="M462.257 468.444L415.897 423.1L479.023 409.632L526.17 454.538L462.257 468.444Z" stroke="black" stroke-opacity="0.6"/>
<path d="M259.603 175.146L195.979 129.04L185.843 207.953L249.806 254.498L259.603 175.146Z" fill="#FFFDFD"/>
<path d="M335.924 147.015L262.325 175.496L252.139 254.798L325.788 225.928L335.924 147.015Z" fill="#FFFDFD"/>
<path d="M261.119 172.575L196.379 125.93L270.706 97.9376L336.324 143.905L261.119 172.575Z" fill="#FFFDFD"/>
<path d="M259.603 175.146L195.979 129.04L185.843 207.953L249.806 254.498L259.603 175.146Z" stroke="black" stroke-opacity="0.6"/>
<path d="M335.924 147.015L262.325 175.496L252.139 254.798L325.788 225.928L335.924 147.015Z" stroke="black" stroke-opacity="0.6"/>
<path d="M261.119 172.575L196.379 125.93L270.706 97.9376L336.324 143.905L261.119 172.575Z" stroke="black" stroke-opacity="0.6"/>
<path d="M119.516 319.132L44.2835 296.462L60.6092 374.331L136.306 397.304L119.516 319.132Z" fill="#BBBBBB" fill-opacity="0.8"/>
<path d="M182.376 267.51L122.201 318.569L138.607 396.822L198.702 345.379L182.376 267.51Z" fill="#BBBBBB" fill-opacity="0.8"/>
<path d="M120.104 316.206L43.6401 293.393L104.663 242.557L181.732 264.441L120.104 316.206Z" fill="#BBBBBB" fill-opacity="0.8"/>
<path d="M119.516 319.132L44.2835 296.462L60.6092 374.331L136.306 397.304L119.516 319.132Z" stroke="black" stroke-opacity="0.6"/>
<path d="M182.376 267.51L122.201 318.569L138.607 396.822L198.702 345.379L182.376 267.51Z" stroke="black" stroke-opacity="0.6"/>
<path d="M120.104 316.206L43.6401 293.393L104.663 242.557L181.732 264.441L120.104 316.206Z" stroke="black" stroke-opacity="0.6"/>
<path d="M244.657 456.86L199.802 422.648L191.139 479.11L236.23 513.642L244.657 456.86Z" fill="#BBBBBB" fill-opacity="0.8"/>
<path d="M299.931 438.011L246.604 457.158L237.899 513.898L291.268 494.472L299.931 438.011Z" fill="#BBBBBB" fill-opacity="0.8"/>
<path d="M245.791 455.041L200.144 420.423L253.984 401.639L300.272 435.786L245.791 455.041Z" fill="#BBBBBB" fill-opacity="0.8"/>
<path d="M244.657 456.86L199.802 422.648L191.139 479.11L236.23 513.642L244.657 456.86Z" stroke="black" stroke-opacity="0.6"/>
<path d="M299.931 438.011L246.604 457.158L237.899 513.898L291.268 494.472L299.931 438.011Z" stroke="black" stroke-opacity="0.6"/>
<path d="M245.791 455.041L200.144 420.423L253.984 401.639L300.272 435.786L245.791 455.041Z" stroke="black" stroke-opacity="0.6"/>
</svg>
