<svg width="165" height="28" viewBox="0 0 165 28" fill="none" xmlns="http://www.w3.org/2000/svg">
<mask id="path-1-outside-1_146_49" maskUnits="userSpaceOnUse" x="-1" y="-1" width="167" height="30" fill="black">
<rect fill="white" x="-1" y="-1" width="167" height="30"/>
<path d="M14.344 1.368C17.344 1.368 19.684 2.316 21.364 4.212C23.044 6.084 23.884 8.76 23.884 12.24V27H18.052V12.42C18.052 10.404 17.572 8.892 16.612 7.884C15.676 6.852 14.368 6.336 12.688 6.336C10.912 6.336 9.484 6.888 8.404 7.992C7.348 9.072 6.82 10.68 6.82 12.816V27H0.988V1.8H6.64V4.86C7.504 3.708 8.584 2.844 9.88 2.268C11.176 1.668 12.664 1.368 14.344 1.368ZM38.4603 27.288C36.4203 27.288 34.5843 26.868 32.9523 26.028C31.3443 25.164 30.0843 23.976 29.1723 22.464C28.2603 20.952 27.8043 19.236 27.8043 17.316C27.8043 15.396 28.2603 13.68 29.1723 12.168C30.0843 10.656 31.3443 9.48 32.9523 8.64C34.5843 7.776 36.4203 7.344 38.4603 7.344C40.5003 7.344 42.3243 7.776 43.9323 8.64C45.5403 9.48 46.8003 10.656 47.7123 12.168C48.6243 13.68 49.0803 15.396 49.0803 17.316C49.0803 19.236 48.6243 20.952 47.7123 22.464C46.8003 23.976 45.5403 25.164 43.9323 26.028C42.3243 26.868 40.5003 27.288 38.4603 27.288ZM38.4603 22.68C39.9003 22.68 41.0763 22.2 41.9883 21.24C42.9243 20.256 43.3923 18.948 43.3923 17.316C43.3923 15.684 42.9243 14.388 41.9883 13.428C41.0763 12.444 39.9003 11.952 38.4603 11.952C37.0203 11.952 35.8323 12.444 34.8963 13.428C33.9603 14.388 33.4923 15.684 33.4923 17.316C33.4923 18.948 33.9603 20.256 34.8963 21.24C35.8323 22.2 37.0203 22.68 38.4603 22.68ZM64.4982 26.064C63.9462 26.472 63.2622 26.784 62.4462 27C61.6542 27.192 60.8262 27.288 59.9622 27.288C57.6342 27.288 55.8462 26.7 54.5982 25.524C53.3502 24.348 52.7262 22.62 52.7262 20.34V3.348H58.3422V8.064H63.1302V12.384H58.3422V20.268C58.3422 21.084 58.5462 21.72 58.9542 22.176C59.3622 22.608 59.9502 22.824 60.7182 22.824C61.5822 22.824 62.3502 22.584 63.0222 22.104L64.4982 26.064ZM76.8285 22.788C77.8365 22.788 78.7245 22.644 79.4925 22.356C80.2845 22.044 81.0165 21.564 81.6885 20.916L84.6765 24.156C82.8525 26.244 80.1885 27.288 76.6845 27.288C74.5005 27.288 72.5685 26.868 70.8885 26.028C69.2085 25.164 67.9125 23.976 67.0005 22.464C66.0885 20.952 65.6325 19.236 65.6325 17.316C65.6325 15.42 66.0765 13.716 66.9645 12.204C67.8765 10.668 69.1125 9.48 70.6725 8.64C72.2565 7.776 74.0325 7.344 76.0005 7.344C77.8485 7.344 79.5285 7.74 81.0405 8.532C82.5525 9.3 83.7525 10.428 84.6405 11.916C85.5525 13.38 86.0085 15.12 86.0085 17.136L71.6805 19.908C72.0885 20.868 72.7245 21.588 73.5885 22.068C74.4765 22.548 75.5565 22.788 76.8285 22.788ZM76.0005 11.592C74.5845 11.592 73.4325 12.048 72.5445 12.96C71.6565 13.872 71.1885 15.132 71.1405 16.74L80.5725 14.904C80.3085 13.896 79.7685 13.092 78.9525 12.492C78.1365 11.892 77.1525 11.592 76.0005 11.592Z"/>
<path d="M113.291 1.8V27H107.459V16.668H96.0114V27H90.1794V1.8H96.0114V11.736H107.459V1.8H113.291ZM138.37 7.632V27H133.042V24.696C132.298 25.536 131.41 26.184 130.378 26.64C129.346 27.072 128.23 27.288 127.03 27.288C124.486 27.288 122.47 26.556 120.982 25.092C119.494 23.628 118.75 21.456 118.75 18.576V7.632H124.366V17.748C124.366 20.868 125.674 22.428 128.29 22.428C129.634 22.428 130.714 21.996 131.53 21.132C132.346 20.244 132.754 18.936 132.754 17.208V7.632H138.37ZM155.02 7.344C156.82 7.344 158.452 7.764 159.916 8.604C161.404 9.42 162.568 10.584 163.408 12.096C164.248 13.584 164.668 15.324 164.668 17.316C164.668 19.308 164.248 21.06 163.408 22.572C162.568 24.06 161.404 25.224 159.916 26.064C158.452 26.88 156.82 27.288 155.02 27.288C152.356 27.288 150.328 26.448 148.936 24.768V27H143.572V0.287998H149.188V9.684C150.604 8.124 152.548 7.344 155.02 7.344ZM154.048 22.68C155.488 22.68 156.664 22.2 157.576 21.24C158.512 20.256 158.98 18.948 158.98 17.316C158.98 15.684 158.512 14.388 157.576 13.428C156.664 12.444 155.488 11.952 154.048 11.952C152.608 11.952 151.42 12.444 150.484 13.428C149.572 14.388 149.116 15.684 149.116 17.316C149.116 18.948 149.572 20.256 150.484 21.24C151.42 22.2 152.608 22.68 154.048 22.68Z"/>
</mask>
<path d="M14.344 1.368C17.344 1.368 19.684 2.316 21.364 4.212C23.044 6.084 23.884 8.76 23.884 12.24V27H18.052V12.42C18.052 10.404 17.572 8.892 16.612 7.884C15.676 6.852 14.368 6.336 12.688 6.336C10.912 6.336 9.484 6.888 8.404 7.992C7.348 9.072 6.82 10.68 6.82 12.816V27H0.988V1.8H6.64V4.86C7.504 3.708 8.584 2.844 9.88 2.268C11.176 1.668 12.664 1.368 14.344 1.368ZM38.4603 27.288C36.4203 27.288 34.5843 26.868 32.9523 26.028C31.3443 25.164 30.0843 23.976 29.1723 22.464C28.2603 20.952 27.8043 19.236 27.8043 17.316C27.8043 15.396 28.2603 13.68 29.1723 12.168C30.0843 10.656 31.3443 9.48 32.9523 8.64C34.5843 7.776 36.4203 7.344 38.4603 7.344C40.5003 7.344 42.3243 7.776 43.9323 8.64C45.5403 9.48 46.8003 10.656 47.7123 12.168C48.6243 13.68 49.0803 15.396 49.0803 17.316C49.0803 19.236 48.6243 20.952 47.7123 22.464C46.8003 23.976 45.5403 25.164 43.9323 26.028C42.3243 26.868 40.5003 27.288 38.4603 27.288ZM38.4603 22.68C39.9003 22.68 41.0763 22.2 41.9883 21.24C42.9243 20.256 43.3923 18.948 43.3923 17.316C43.3923 15.684 42.9243 14.388 41.9883 13.428C41.0763 12.444 39.9003 11.952 38.4603 11.952C37.0203 11.952 35.8323 12.444 34.8963 13.428C33.9603 14.388 33.4923 15.684 33.4923 17.316C33.4923 18.948 33.9603 20.256 34.8963 21.24C35.8323 22.2 37.0203 22.68 38.4603 22.68ZM64.4982 26.064C63.9462 26.472 63.2622 26.784 62.4462 27C61.6542 27.192 60.8262 27.288 59.9622 27.288C57.6342 27.288 55.8462 26.7 54.5982 25.524C53.3502 24.348 52.7262 22.62 52.7262 20.34V3.348H58.3422V8.064H63.1302V12.384H58.3422V20.268C58.3422 21.084 58.5462 21.72 58.9542 22.176C59.3622 22.608 59.9502 22.824 60.7182 22.824C61.5822 22.824 62.3502 22.584 63.0222 22.104L64.4982 26.064ZM76.8285 22.788C77.8365 22.788 78.7245 22.644 79.4925 22.356C80.2845 22.044 81.0165 21.564 81.6885 20.916L84.6765 24.156C82.8525 26.244 80.1885 27.288 76.6845 27.288C74.5005 27.288 72.5685 26.868 70.8885 26.028C69.2085 25.164 67.9125 23.976 67.0005 22.464C66.0885 20.952 65.6325 19.236 65.6325 17.316C65.6325 15.42 66.0765 13.716 66.9645 12.204C67.8765 10.668 69.1125 9.48 70.6725 8.64C72.2565 7.776 74.0325 7.344 76.0005 7.344C77.8485 7.344 79.5285 7.74 81.0405 8.532C82.5525 9.3 83.7525 10.428 84.6405 11.916C85.5525 13.38 86.0085 15.12 86.0085 17.136L71.6805 19.908C72.0885 20.868 72.7245 21.588 73.5885 22.068C74.4765 22.548 75.5565 22.788 76.8285 22.788ZM76.0005 11.592C74.5845 11.592 73.4325 12.048 72.5445 12.96C71.6565 13.872 71.1885 15.132 71.1405 16.74L80.5725 14.904C80.3085 13.896 79.7685 13.092 78.9525 12.492C78.1365 11.892 77.1525 11.592 76.0005 11.592Z" fill="white"/>
<path d="M113.291 1.8V27H107.459V16.668H96.0114V27H90.1794V1.8H96.0114V11.736H107.459V1.8H113.291ZM138.37 7.632V27H133.042V24.696C132.298 25.536 131.41 26.184 130.378 26.64C129.346 27.072 128.23 27.288 127.03 27.288C124.486 27.288 122.47 26.556 120.982 25.092C119.494 23.628 118.75 21.456 118.75 18.576V7.632H124.366V17.748C124.366 20.868 125.674 22.428 128.29 22.428C129.634 22.428 130.714 21.996 131.53 21.132C132.346 20.244 132.754 18.936 132.754 17.208V7.632H138.37ZM155.02 7.344C156.82 7.344 158.452 7.764 159.916 8.604C161.404 9.42 162.568 10.584 163.408 12.096C164.248 13.584 164.668 15.324 164.668 17.316C164.668 19.308 164.248 21.06 163.408 22.572C162.568 24.06 161.404 25.224 159.916 26.064C158.452 26.88 156.82 27.288 155.02 27.288C152.356 27.288 150.328 26.448 148.936 24.768V27H143.572V0.287998H149.188V9.684C150.604 8.124 152.548 7.344 155.02 7.344ZM154.048 22.68C155.488 22.68 156.664 22.2 157.576 21.24C158.512 20.256 158.98 18.948 158.98 17.316C158.98 15.684 158.512 14.388 157.576 13.428C156.664 12.444 155.488 11.952 154.048 11.952C152.608 11.952 151.42 12.444 150.484 13.428C149.572 14.388 149.116 15.684 149.116 17.316C149.116 18.948 149.572 20.256 150.484 21.24C151.42 22.2 152.608 22.68 154.048 22.68Z" fill="black"/>
<path d="M21.364 4.212L20.6155 4.8752L20.6198 4.87991L21.364 4.212ZM23.884 27V28H24.884V27H23.884ZM18.052 27H17.052V28H18.052V27ZM16.612 7.884L15.8713 8.55581L15.8795 8.56484L15.8879 8.57365L16.612 7.884ZM8.404 7.992L7.68917 7.29271L7.68899 7.29288L8.404 7.992ZM6.82 27V28H7.82V27H6.82ZM0.988 27H-0.0119998V28H0.988V27ZM0.988 1.8V0.799998H-0.0119998V1.8H0.988ZM6.64 1.8H7.64V0.799998H6.64V1.8ZM6.64 4.86H5.64V7.86L7.44 5.46L6.64 4.86ZM9.88 2.268L10.2861 3.18181L10.2932 3.17869L10.3001 3.17547L9.88 2.268ZM14.344 2.368C17.1156 2.368 19.1606 3.23315 20.6155 4.87519L22.1125 3.54881C20.2074 1.39885 17.5724 0.368 14.344 0.368V2.368ZM20.6198 4.87991C22.0812 6.50832 22.884 8.91169 22.884 12.24H24.884C24.884 8.60831 24.0069 5.65968 22.1082 3.54409L20.6198 4.87991ZM22.884 12.24V27H24.884V12.24H22.884ZM23.884 26H18.052V28H23.884V26ZM19.052 27V12.42H17.052V27H19.052ZM19.052 12.42C19.052 10.2617 18.539 8.4573 17.3361 7.19434L15.8879 8.57365C16.605 9.3267 17.052 10.5463 17.052 12.42H19.052ZM17.3527 7.21218C16.1886 5.92865 14.5871 5.336 12.688 5.336V7.336C14.1489 7.336 15.1634 7.77535 15.8713 8.55581L17.3527 7.21218ZM12.688 5.336C10.6869 5.336 8.98593 5.96713 7.68917 7.29271L9.11883 8.69129C9.98207 7.80887 11.1371 7.336 12.688 7.336V5.336ZM7.68899 7.29288C6.38609 8.6254 5.82 10.5277 5.82 12.816H7.82C7.82 10.8323 8.30991 9.5186 9.11901 8.69112L7.68899 7.29288ZM5.82 12.816V27H7.82V12.816H5.82ZM6.82 26H0.988V28H6.82V26ZM1.988 27V1.8H-0.0119998V27H1.988ZM0.988 2.8H6.64V0.799998H0.988V2.8ZM5.64 1.8V4.86H7.64V1.8H5.64ZM7.44 5.46C8.20328 4.4423 9.14853 3.68741 10.2861 3.18181L9.47386 1.35419C8.01947 2.00058 6.80472 2.9737 5.84 4.26L7.44 5.46ZM10.3001 3.17547C11.4432 2.64625 12.7837 2.368 14.344 2.368V0.368C12.5443 0.368 10.9088 0.689754 9.45988 1.36053L10.3001 3.17547ZM32.9523 26.028L32.479 26.9089L32.4868 26.9131L32.4947 26.9171L32.9523 26.028ZM29.1723 22.464L28.3161 22.9805H28.3161L29.1723 22.464ZM29.1723 12.168L28.3161 11.6515H28.3161L29.1723 12.168ZM32.9523 8.64L33.4154 9.52636L33.4202 9.52379L32.9523 8.64ZM43.9323 8.64L43.459 9.52095L43.4693 9.52635L43.9323 8.64ZM47.7123 12.168L48.5686 11.6515L47.7123 12.168ZM47.7123 22.464L48.5686 22.9805L47.7123 22.464ZM43.9323 26.028L44.3954 26.9144L44.4057 26.9089L43.9323 26.028ZM41.9883 21.24L41.2638 20.5508L41.2633 20.5513L41.9883 21.24ZM41.9883 13.428L41.2549 14.1078L41.2635 14.117L41.2723 14.1261L41.9883 13.428ZM34.8963 13.428L35.6124 14.1262L35.6209 14.1172L34.8963 13.428ZM34.8963 21.24L34.1717 21.9293L34.1803 21.9381L34.8963 21.24ZM38.4603 26.288C36.5615 26.288 34.8853 25.8982 33.41 25.1389L32.4947 26.9171C34.2834 27.8378 36.2791 28.288 38.4603 28.288V26.288ZM33.4257 25.1471C31.9701 24.365 30.8447 23.3005 30.0286 21.9475L28.3161 22.9805C29.3239 24.6515 30.7186 25.963 32.479 26.9089L33.4257 25.1471ZM30.0286 21.9475C29.2188 20.6049 28.8043 19.0704 28.8043 17.316H26.8043C26.8043 19.4016 27.3019 21.2991 28.3161 22.9805L30.0286 21.9475ZM28.8043 17.316C28.8043 15.5616 29.2188 14.0271 30.0286 12.6845L28.3161 11.6515C27.3019 13.3329 26.8043 15.2304 26.8043 17.316H28.8043ZM30.0286 12.6845C30.8432 11.334 31.9652 10.2839 33.4154 9.52635L32.4893 7.75365C30.7235 8.6761 29.3255 9.97803 28.3161 11.6515L30.0286 12.6845ZM33.4202 9.52379C34.8934 8.74385 36.566 8.344 38.4603 8.344V6.344C36.2746 6.344 34.2752 6.80815 32.4845 7.75621L33.4202 9.52379ZM38.4603 8.344C40.3549 8.344 42.013 8.74392 43.459 9.52089L44.4057 7.7591C42.6357 6.80808 40.6458 6.344 38.4603 6.344V8.344ZM43.4693 9.52635C44.9195 10.2839 46.0415 11.334 46.8561 12.6845L48.5686 11.6515C47.5592 9.97803 46.1612 8.6761 44.3954 7.75365L43.4693 9.52635ZM46.8561 12.6845C47.6659 14.0271 48.0803 15.5616 48.0803 17.316H50.0803C50.0803 15.2304 49.5828 13.3329 48.5686 11.6515L46.8561 12.6845ZM48.0803 17.316C48.0803 19.0704 47.6659 20.6049 46.8561 21.9475L48.5686 22.9805C49.5828 21.2991 50.0803 19.4016 50.0803 17.316H48.0803ZM46.8561 21.9475C46.0399 23.3005 44.9146 24.365 43.459 25.1471L44.4057 26.9089C46.1661 25.963 47.5608 24.6515 48.5686 22.9805L46.8561 21.9475ZM43.4693 25.1417C42.0212 25.8981 40.3594 26.288 38.4603 26.288V28.288C40.6413 28.288 42.6275 27.8379 44.3954 26.9143L43.4693 25.1417ZM38.4603 23.68C40.1478 23.68 41.5949 23.106 42.7133 21.9287L41.2633 20.5513C40.5577 21.294 39.6529 21.68 38.4603 21.68V23.68ZM42.7129 21.9292C43.8603 20.723 44.3923 19.1496 44.3923 17.316H42.3923C42.3923 18.7464 41.9884 19.789 41.2638 20.5508L42.7129 21.9292ZM44.3923 17.316C44.3923 15.4833 43.8605 13.9157 42.7043 12.7299L41.2723 14.1261C41.9882 14.8603 42.3923 15.8847 42.3923 17.316H44.3923ZM42.7218 12.7482C41.6055 11.5439 40.1559 10.952 38.4603 10.952V12.952C39.6448 12.952 40.5472 13.3441 41.2549 14.1078L42.7218 12.7482ZM38.4603 10.952C36.7649 10.952 35.3089 11.5433 34.1718 12.7388L35.6209 14.1172C36.3558 13.3447 37.2757 12.952 38.4603 12.952V10.952ZM34.1803 12.7299C33.0242 13.9157 32.4923 15.4833 32.4923 17.316H34.4923C34.4923 15.8847 34.8965 14.8603 35.6123 14.1261L34.1803 12.7299ZM32.4923 17.316C32.4923 19.1496 33.0244 20.723 34.1718 21.9292L35.6209 20.5508C34.8963 19.789 34.4923 18.7464 34.4923 17.316H32.4923ZM34.1803 21.9381C35.3195 23.1064 36.7729 23.68 38.4603 23.68V21.68C37.2678 21.68 36.3452 21.2936 35.6123 20.5419L34.1803 21.9381ZM64.4982 26.064L65.0926 26.8682L65.6983 26.4205L65.4352 25.7147L64.4982 26.064ZM62.4462 27L62.6818 27.9719L62.692 27.9694L62.7021 27.9667L62.4462 27ZM54.5982 25.524L53.9124 26.2518L54.5982 25.524ZM52.7262 3.348V2.348H51.7262V3.348H52.7262ZM58.3422 3.348H59.3422V2.348H58.3422V3.348ZM58.3422 8.064H57.3422V9.064H58.3422V8.064ZM63.1302 8.064H64.1302V7.064H63.1302V8.064ZM63.1302 12.384V13.384H64.1302V12.384H63.1302ZM58.3422 12.384V11.384H57.3422V12.384H58.3422ZM58.9542 22.176L58.2089 22.8428L58.2179 22.8528L58.2272 22.8626L58.9542 22.176ZM63.0222 22.104L63.9592 21.7547L63.5033 20.5315L62.4409 21.2903L63.0222 22.104ZM63.9038 25.2598C63.4737 25.5777 62.9114 25.8424 62.1903 26.0333L62.7021 27.9667C63.613 27.7256 64.4186 27.3663 65.0926 26.8682L63.9038 25.2598ZM62.2106 26.0281C61.5002 26.2004 60.7516 26.288 59.9622 26.288V28.288C60.9008 28.288 61.8082 28.1836 62.6818 27.9719L62.2106 26.0281ZM59.9622 26.288C57.7964 26.288 56.2885 25.7427 55.284 24.7962L53.9124 26.2518C55.4039 27.6573 57.472 28.288 59.9622 28.288V26.288ZM55.284 24.7962C54.2964 23.8656 53.7262 22.4393 53.7262 20.34H51.7262C51.7262 22.8007 52.404 24.8304 53.9124 26.2518L55.284 24.7962ZM53.7262 20.34V3.348H51.7262V20.34H53.7262ZM52.7262 4.348H58.3422V2.348H52.7262V4.348ZM57.3422 3.348V8.064H59.3422V3.348H57.3422ZM58.3422 9.064H63.1302V7.064H58.3422V9.064ZM62.1302 8.064V12.384H64.1302V8.064H62.1302ZM63.1302 11.384H58.3422V13.384H63.1302V11.384ZM57.3422 12.384V20.268H59.3422V12.384H57.3422ZM57.3422 20.268C57.3422 21.2466 57.5887 22.1496 58.2089 22.8428L59.6994 21.5092C59.5037 21.2904 59.3422 20.9214 59.3422 20.268H57.3422ZM58.2272 22.8626C58.8753 23.5489 59.7599 23.824 60.7182 23.824V21.824C60.1405 21.824 59.849 21.6671 59.6812 21.4894L58.2272 22.8626ZM60.7182 23.824C61.7804 23.824 62.7537 23.5247 63.6034 22.9177L62.4409 21.2903C61.9467 21.6433 61.384 21.824 60.7182 21.824V23.824ZM62.0852 22.4533L63.5612 26.4133L65.4352 25.7147L63.9592 21.7547L62.0852 22.4533ZM79.4925 22.356L79.8436 23.2923L79.8513 23.2894L79.859 23.2864L79.4925 22.356ZM81.6885 20.916L82.4236 20.2381L81.7304 19.4864L80.9943 20.1962L81.6885 20.916ZM84.6765 24.156L85.4296 24.8139L86.0201 24.1379L85.4116 23.4781L84.6765 24.156ZM70.8885 26.028L70.4311 26.9173L70.4413 26.9224L70.8885 26.028ZM67.0005 22.464L66.1442 22.9805L67.0005 22.464ZM66.9645 12.204L66.1046 11.6935L66.1022 11.6976L66.9645 12.204ZM70.6725 8.64L71.1466 9.52048L71.1513 9.51789L70.6725 8.64ZM81.0405 8.532L80.5764 9.4179L80.5876 9.42358L81.0405 8.532ZM84.6405 11.916L83.7818 12.4285L83.7866 12.4366L83.7917 12.4447L84.6405 11.916ZM86.0085 17.136L86.1984 18.1178L87.0085 17.9611V17.136H86.0085ZM71.6805 19.908L71.4905 18.9262L70.2765 19.1611L70.7601 20.2991L71.6805 19.908ZM73.5885 22.068L73.1028 22.9422L73.113 22.9477L73.5885 22.068ZM72.5445 12.96L73.2609 13.6576L72.5445 12.96ZM71.1405 16.74L70.1409 16.7102L70.1036 17.9606L71.3315 17.7216L71.1405 16.74ZM80.5725 14.904L80.7635 15.8856L81.8099 15.6819L81.5398 14.6506L80.5725 14.904ZM78.9525 12.492L78.3601 13.2976L78.9525 12.492ZM76.8285 23.788C77.9299 23.788 78.9409 23.6308 79.8436 23.2923L79.1413 21.4197C78.508 21.6572 77.7431 21.788 76.8285 21.788V23.788ZM79.859 23.2864C80.7842 22.9219 81.6254 22.366 82.3826 21.6358L80.9943 20.1962C80.4075 20.762 79.7847 21.1661 79.1259 21.4256L79.859 23.2864ZM80.9534 21.5939L83.9414 24.8339L85.4116 23.4781L82.4236 20.2381L80.9534 21.5939ZM83.9234 23.4981C82.3372 25.3138 79.9818 26.288 76.6845 26.288V28.288C80.3952 28.288 83.3677 27.1742 85.4296 24.8139L83.9234 23.4981ZM76.6845 26.288C74.6305 26.288 72.8559 25.8937 71.3357 25.1336L70.4413 26.9224C72.2811 27.8423 74.3705 28.288 76.6845 28.288V26.288ZM71.3458 25.1387C69.8188 24.3534 68.6662 23.2895 67.8568 21.9475L66.1442 22.9805C67.1587 24.6625 68.5981 25.9746 70.4311 26.9173L71.3458 25.1387ZM67.8568 21.9475C67.0469 20.6049 66.6325 19.0704 66.6325 17.316H64.6325C64.6325 19.4016 65.13 21.2991 66.1442 22.9805L67.8568 21.9475ZM66.6325 17.316C66.6325 15.5831 67.0362 14.0565 67.8268 12.7104L66.1022 11.6976C65.1167 13.3755 64.6325 15.2569 64.6325 17.316H66.6325ZM67.8243 12.7145C68.6445 11.3332 69.7477 10.2737 71.1466 9.52047L70.1984 7.75953C68.4772 8.6863 67.1085 10.0028 66.1046 11.6935L67.8243 12.7145ZM71.1513 9.51789C72.5754 8.74115 74.1842 8.344 76.0005 8.344V6.344C73.8807 6.344 71.9376 6.81085 70.1936 7.7621L71.1513 9.51789ZM76.0005 8.344C77.7005 8.344 79.2193 8.70692 80.5765 9.41783L81.5045 7.64617C79.8377 6.77307 77.9964 6.344 76.0005 6.344V8.344ZM80.5876 9.42358C81.9274 10.1041 82.9883 11.0989 83.7818 12.4285L85.4992 11.4035C84.5166 9.75712 83.1775 8.49589 81.4933 7.64042L80.5876 9.42358ZM83.7917 12.4447C84.5892 13.7249 85.0085 15.2749 85.0085 17.136H87.0085C87.0085 14.9651 86.5158 13.0351 85.4893 11.3873L83.7917 12.4447ZM85.8185 16.1542L71.4905 18.9262L71.8704 20.8898L86.1984 18.1178L85.8185 16.1542ZM70.7601 20.2991C71.2501 21.4519 72.033 22.3478 73.1028 22.9422L74.0741 21.1938C73.416 20.8282 72.9269 20.2841 72.6008 19.5169L70.7601 20.2991ZM73.113 22.9477C74.1802 23.5246 75.4328 23.788 76.8285 23.788V21.788C75.6802 21.788 74.7727 21.5714 74.064 21.1883L73.113 22.9477ZM76.0005 10.592C74.348 10.592 72.9263 11.1344 71.828 12.2624L73.2609 13.6576C73.9386 12.9616 74.8209 12.592 76.0005 12.592V10.592ZM71.828 12.2624C70.7228 13.3974 70.1943 14.9205 70.1409 16.7102L72.14 16.7698C72.1826 15.3435 72.5901 14.3466 73.2609 13.6576L71.828 12.2624ZM71.3315 17.7216L80.7635 15.8856L80.3814 13.9224L70.9494 15.7584L71.3315 17.7216ZM81.5398 14.6506C81.2196 13.4279 80.5511 12.4262 79.5449 11.6863L78.3601 13.2976C78.9858 13.7578 79.3973 14.3641 79.6051 15.1574L81.5398 14.6506ZM79.5449 11.6863C78.5341 10.9431 77.3351 10.592 76.0005 10.592V12.592C76.9699 12.592 77.7389 12.8409 78.3601 13.2976L79.5449 11.6863ZM113.291 1.8H114.291V0.799998H113.291V1.8ZM113.291 27V28H114.291V27H113.291ZM107.459 27H106.459V28H107.459V27ZM107.459 16.668H108.459V15.668H107.459V16.668ZM96.0114 16.668V15.668H95.0114V16.668H96.0114ZM96.0114 27V28H97.0114V27H96.0114ZM90.1794 27H89.1794V28H90.1794V27ZM90.1794 1.8V0.799998H89.1794V1.8H90.1794ZM96.0114 1.8H97.0114V0.799998H96.0114V1.8ZM96.0114 11.736H95.0114V12.736H96.0114V11.736ZM107.459 11.736V12.736H108.459V11.736H107.459ZM107.459 1.8V0.799998H106.459V1.8H107.459ZM112.291 1.8V27H114.291V1.8H112.291ZM113.291 26H107.459V28H113.291V26ZM108.459 27V16.668H106.459V27H108.459ZM107.459 15.668H96.0114V17.668H107.459V15.668ZM95.0114 16.668V27H97.0114V16.668H95.0114ZM96.0114 26H90.1794V28H96.0114V26ZM91.1794 27V1.8H89.1794V27H91.1794ZM90.1794 2.8H96.0114V0.799998H90.1794V2.8ZM95.0114 1.8V11.736H97.0114V1.8H95.0114ZM96.0114 12.736H107.459V10.736H96.0114V12.736ZM108.459 11.736V1.8H106.459V11.736H108.459ZM107.459 2.8H113.291V0.799998H107.459V2.8ZM138.37 7.632H139.37V6.632H138.37V7.632ZM138.37 27V28H139.37V27H138.37ZM133.042 27H132.042V28H133.042V27ZM133.042 24.696H134.042V22.0588L132.293 24.033L133.042 24.696ZM130.378 26.64L130.764 27.5624L130.773 27.5587L130.782 27.5547L130.378 26.64ZM120.982 25.092L121.683 24.3792L120.982 25.092ZM118.75 7.632V6.632H117.75V7.632H118.75ZM124.366 7.632H125.366V6.632H124.366V7.632ZM131.53 21.132L132.257 21.8187L132.266 21.8086L131.53 21.132ZM132.754 7.632V6.632H131.754V7.632H132.754ZM137.37 7.632V27H139.37V7.632H137.37ZM138.37 26H133.042V28H138.37V26ZM134.042 27V24.696H132.042V27H134.042ZM132.293 24.033C131.645 24.7647 130.875 25.3271 129.973 25.7253L130.782 27.5547C131.945 27.0409 132.95 26.3073 133.79 25.359L132.293 24.033ZM129.991 25.7176C129.09 26.0947 128.107 26.288 127.03 26.288V28.288C128.352 28.288 129.601 28.0493 130.764 27.5624L129.991 25.7176ZM127.03 26.288C124.687 26.288 122.945 25.6204 121.683 24.3792L120.28 25.8048C121.995 27.4916 124.284 28.288 127.03 28.288V26.288ZM121.683 24.3792C120.449 23.1654 119.75 21.2921 119.75 18.576H117.75C117.75 21.6199 118.538 24.0906 120.28 25.8048L121.683 24.3792ZM119.75 18.576V7.632H117.75V18.576H119.75ZM118.75 8.632H124.366V6.632H118.75V8.632ZM123.366 7.632V17.748H125.366V7.632H123.366ZM123.366 17.748C123.366 19.4234 123.713 20.8662 124.58 21.9005C125.476 22.9685 126.777 23.428 128.29 23.428V21.428C127.187 21.428 126.525 21.1075 126.113 20.6155C125.672 20.0898 125.366 19.1926 125.366 17.748H123.366ZM128.29 23.428C129.869 23.428 131.226 22.9097 132.257 21.8186L130.803 20.4454C130.201 21.0823 129.398 21.428 128.29 21.428V23.428ZM132.266 21.8086C133.313 20.6697 133.754 19.0788 133.754 17.208H131.754C131.754 18.7932 131.379 19.8183 130.793 20.4554L132.266 21.8086ZM133.754 17.208V7.632H131.754V17.208H133.754ZM132.754 8.632H138.37V6.632H132.754V8.632ZM159.916 8.604L159.419 9.47136L159.427 9.47617L159.436 9.48081L159.916 8.604ZM163.408 12.096L162.534 12.5817L162.538 12.5876L163.408 12.096ZM163.408 22.572L164.279 23.0636L164.283 23.0576L163.408 22.572ZM159.916 26.064L160.403 26.9375L160.408 26.9348L159.916 26.064ZM148.936 24.768L149.706 24.13L147.936 21.9937V24.768H148.936ZM148.936 27V28H149.936V27H148.936ZM143.572 27H142.572V28H143.572V27ZM143.572 0.287998V-0.712002H142.572V0.287998H143.572ZM149.188 0.287998H150.188V-0.712002H149.188V0.287998ZM149.188 9.684H148.188V12.2736L149.929 10.3561L149.188 9.684ZM157.576 21.24L156.852 20.5508L156.851 20.5513L157.576 21.24ZM157.576 13.428L156.843 14.1078L156.852 14.117L156.86 14.1261L157.576 13.428ZM150.484 13.428L149.76 12.7388L149.759 12.7393L150.484 13.428ZM150.484 21.24L149.751 21.9198L149.76 21.929L149.768 21.9381L150.484 21.24ZM155.02 8.344C156.658 8.344 158.116 8.72406 159.419 9.47136L160.414 7.73663C158.789 6.80394 156.983 6.344 155.02 6.344V8.344ZM159.436 9.48081C160.755 10.2043 161.784 11.2312 162.534 12.5816L164.283 11.6104C163.353 9.93683 162.054 8.6357 160.397 7.72719L159.436 9.48081ZM162.538 12.5876C163.28 13.9024 163.668 15.4675 163.668 17.316H165.668C165.668 15.1805 165.217 13.2656 164.279 11.6044L162.538 12.5876ZM163.668 17.316C163.668 19.1641 163.28 20.7441 162.534 22.0864L164.283 23.0576C165.217 21.3759 165.668 19.4519 165.668 17.316H163.668ZM162.538 22.0804C161.787 23.4098 160.754 24.4427 159.425 25.1932L160.408 26.9348C162.055 26.0053 163.35 24.7102 164.279 23.0636L162.538 22.0804ZM159.43 25.1905C158.125 25.9174 156.663 26.288 155.02 26.288V28.288C156.978 28.288 158.78 27.8426 160.403 26.9375L159.43 25.1905ZM155.02 26.288C152.582 26.288 150.867 25.5303 149.706 24.13L148.166 25.406C149.79 27.3657 152.131 28.288 155.02 28.288V26.288ZM147.936 24.768V27H149.936V24.768H147.936ZM148.936 26H143.572V28H148.936V26ZM144.572 27V0.287998H142.572V27H144.572ZM143.572 1.288H149.188V-0.712002H143.572V1.288ZM148.188 0.287998V9.684H150.188V0.287998H148.188ZM149.929 10.3561C151.122 9.04151 152.777 8.344 155.02 8.344V6.344C152.32 6.344 150.087 7.20648 148.448 9.01189L149.929 10.3561ZM154.048 23.68C155.736 23.68 157.183 23.106 158.301 21.9287L156.851 20.5513C156.146 21.294 155.241 21.68 154.048 21.68V23.68ZM158.301 21.9292C159.448 20.723 159.98 19.1496 159.98 17.316H157.98C157.98 18.7464 157.577 19.789 156.852 20.5508L158.301 21.9292ZM159.98 17.316C159.98 15.4833 159.449 13.9157 158.292 12.7299L156.86 14.1261C157.576 14.8603 157.98 15.8847 157.98 17.316H159.98ZM158.31 12.7482C157.194 11.5439 155.744 10.952 154.048 10.952V12.952C155.233 12.952 156.135 13.3441 156.843 14.1078L158.31 12.7482ZM154.048 10.952C152.353 10.952 150.897 11.5433 149.76 12.7388L151.209 14.1172C151.944 13.3447 152.864 12.952 154.048 12.952V10.952ZM149.759 12.7393C148.632 13.9261 148.116 15.4904 148.116 17.316H150.116C150.116 15.8776 150.513 14.8499 151.209 14.1167L149.759 12.7393ZM148.116 17.316C148.116 19.1426 148.632 20.7126 149.751 21.9198L151.218 20.5602C150.513 19.7994 150.116 18.7534 150.116 17.316H148.116ZM149.768 21.9381C150.908 23.1064 152.361 23.68 154.048 23.68V21.68C152.856 21.68 151.933 21.2936 151.2 20.5419L149.768 21.9381Z" fill="black" mask="url(#path-1-outside-1_146_49)"/>
</svg>
