<svg width="329" height="479" viewBox="0 0 329 479" fill="none" xmlns="http://www.w3.org/2000/svg">
<path d="M243.911 280.077L210.896 233L163 266.589L186.541 300.157L209.524 304.192L243.911 280.077Z" fill="white" stroke="black"/>
<path d="M143.002 180L90 202.295L112.683 256.218L150.475 240.321L159.287 218.714L143.002 180Z" fill="white" stroke="black"/>
<path d="M186.052 165L176 221.615L233.599 231.841L240.767 191.473L227.405 172.342L186.052 165Z" fill="white" stroke="black"/>
<path d="M160.274 58.603L103.646 68.582L113.799 126.194L154.177 119.079L167.563 99.9656L160.274 58.603Z" fill="white" stroke="black"/>
<path d="M119.864 79.9399L154.825 73.779" stroke="black"/>
<path d="M126.58 95.0029L151.693 90.5774" stroke="black"/>
<path d="M130.632 106.474L153.775 102.395" stroke="black"/>
<path d="M167.002 128L114 150.295L136.683 204.219L174.475 188.321L183.287 166.714L167.002 128Z" fill="white" stroke="black"/>
<path d="M133.387 164.776L164.887 148.776" stroke="black"/>
<path d="M144.887 176.776L160.887 166.776" stroke="black"/>
<path d="M67.0017 37.8586L14 60.1538L36.6829 114.077L74.4754 98.1798L83.2868 76.5729L67.0017 37.8586Z" fill="white" stroke="black"/>
<path d="M32 74.3589L64 60.3589" stroke="black"/>
<path d="M42 87.8589L66 76.3589" stroke="black"/>
<path d="M52.9456 64.7303L54.252 47.157L72.8179 0.858887L77.7633 2.84204L83.1583 5.00548L64.5924 51.3036L53.3952 64.9106" stroke="black"/>
<path d="M92.8234 176.126L101.956 119.356L44.1981 110.065L37.6865 150.545L51.3565 169.456L92.8234 176.126Z" fill="white" stroke="black"/>
<path d="M55.8691 137.508L87.5001 142.353" stroke="black"/>
<path d="M55.709 125.344L89.3169 130.492" stroke="black"/>
<path d="M54.0518 149.37L85.6827 154.215" stroke="black"/>
<path d="M77.5164 242.27L55.4199 189.186L1.41192 211.666L17.1677 249.518L38.7415 258.41L77.5164 242.27Z" fill="white" stroke="black"/>
<path d="M25.7734 228.866L55.2234 216.348" stroke="black"/>
<path d="M19.2388 218.605L50.5294 205.305" stroke="black"/>
<path d="M30.4678 239.91L59.9178 227.392" stroke="black"/>
<path d="M153.342 285.902L127.791 234.391L75.3839 260.386L93.6028 297.116L115.716 304.565L153.342 285.902Z" fill="white" stroke="black"/>
<path d="M100.827 275.941L129.387 261.508" stroke="black"/>
<path d="M93.6294 266.133L123.974 250.798" stroke="black"/>
<path d="M265.342 451.902L239.791 400.391L187.384 426.386L205.603 463.116L227.716 470.565L265.342 451.902Z" fill="white" stroke="black"/>
<path d="M212.827 441.941L241.387 427.508" stroke="black"/>
<path d="M205.629 432.133L235.974 416.798" stroke="black"/>
<path d="M271.052 317L261 373.615L318.599 383.841L325.767 343.473L312.405 324.342L271.052 317Z" fill="white" stroke="black"/>
<path d="M223.823 388.126L232.956 331.356L175.198 322.065L168.686 362.545L182.357 381.456L223.823 388.126Z" fill="white" stroke="black"/>
<path d="M186.869 349.508L218.5 354.353" stroke="black"/>
<path d="M186.709 337.344L220.317 342.492" stroke="black"/>
<path d="M185.052 361.37L216.683 366.215" stroke="black"/>
<path d="M293.002 234L240 256.295L262.683 310.219L300.475 294.321L309.287 272.714L293.002 234Z" fill="white" stroke="black"/>
<path d="M259.387 270.776L290.887 254.776" stroke="black"/>
<path d="M270.887 282.776L286.887 272.776" stroke="black"/>
</svg>
